<svg width="93" height="44" viewBox="0 0 93 44" fill="none" xmlns="http://www.w3.org/2000/svg">
<path d="M91.4039 12.3955H83.5769L77.0963 1.43281C76.8251 0.961722 76.2342 0.814507 75.7692 1.08931C75.3043 1.36411 75.159 1.96279 75.4302 2.43388L81.3101 12.3856H59.3208L65.2008 2.44369C65.4817 1.98242 65.3364 1.37393 64.8714 1.09912C64.4162 0.814507 63.8156 0.961722 63.5443 1.43281L57.0735 12.3955H50.0214C49.2852 12.3955 48.6846 13.0039 48.6749 13.7596V19.4814C48.6749 20.2273 49.2755 20.8358 50.0214 20.8456H50.8545L55.2039 40.1701C55.3008 40.6117 55.6979 40.9356 56.1532 40.9356H85.2818C85.7371 40.9356 86.1245 40.6215 86.2311 40.1701L90.5805 20.8456H91.4136C92.1498 20.8456 92.7504 20.2371 92.7601 19.4814V13.7596C92.7601 13.0138 92.1595 12.4053 91.4136 12.3955H91.4039ZM84.5068 38.9531H56.9185L52.8403 20.826H88.585L84.5068 38.9531ZM90.8033 18.8729H50.6123V14.3583H90.8033V18.8729Z" fill="#1E1E1E"/>
<g clip-path="url(#clip0_64_214)">
<path d="M19.6188 43.9344C23.4327 43.9344 38.6556 32.0784 38.6556 21.7125C38.6556 15.2224 33.3515 9.94794 26.8396 9.94794C24.4108 9.94794 22.3233 10.68 20.4459 12.1897L19.6188 12.8564L18.7917 12.1897C16.9143 10.68 14.8202 9.94794 12.398 9.94794C5.88607 9.94794 0.582031 15.2224 0.582031 21.7125C0.582031 32.0784 15.8049 43.9344 19.6188 43.9344ZM4.0546 17.8171C5.63006 14.4054 9.11575 12.3531 12.9362 12.5819C15.1287 12.7126 16.8289 13.6407 18.6341 15.6799L19.1724 16.2877C19.2709 16.3988 19.4416 16.4707 19.6188 16.4707C19.796 16.4707 19.9667 16.4054 20.0652 16.2877L20.6035 15.6799C22.4087 13.6407 24.1089 12.7126 26.3014 12.5819C30.1218 12.3466 33.6075 14.4054 35.183 17.8171C36.404 20.4707 36.3121 23.4445 34.9073 26.6601C31.7301 33.9346 22.5137 40.3985 20.0324 41.2155L19.6188 41.3528L19.2052 41.2155C16.7305 40.3985 7.50748 33.9346 4.33031 26.6601C2.92552 23.4445 2.83362 20.4707 4.0546 17.8171Z" fill="#1E1E1E"/>
</g>
<defs>
<clipPath id="clip0_64_214">
<rect width="38.0735" height="33.9865" fill="white" transform="translate(0.582031 9.94794)"/>
</clipPath>
</defs>
</svg>
