<svg width="26" height="24" viewBox="0 0 26 24" fill="none" xmlns="http://www.w3.org/2000/svg">
<g clip-path="url(#clip0_64_150)">
<path d="M3.16382 0C4.90206 0 6.29081 1.29661 6.27242 2.88983C6.26322 4.48305 4.85608 5.77966 3.10864 5.77966C1.36121 5.77966 -0.00915101 4.48305 4.60223e-05 2.88983C0.00924305 1.29661 1.43478 0 3.16382 0Z" fill="white"/>
<path d="M5.80332 7.95752L5.67456 23.9999H0.257507L0.395463 7.95752H5.80332Z" fill="white"/>
<path d="M19.5713 7.56787C25.0527 7.56787 26.0276 10.8814 26 15.2035L25.9264 24.0001H20.5278L20.5922 16.2119C20.6105 14.3475 20.583 11.9492 17.8147 11.9492C15.0463 11.9492 14.5589 13.9746 14.5405 16.0679L14.4761 24.0001H9.05908L9.18784 7.96618H14.375L14.3566 10.1611H14.4393C15.1751 8.90685 16.9409 7.57635 19.5713 7.57635V7.56787Z" fill="white"/>
</g>
<defs>
<clipPath id="clip0_64_150">
<rect width="26" height="24" fill="white"/>
</clipPath>
</defs>
</svg>
