<svg width="17" height="27" viewBox="0 0 17 27" fill="none" xmlns="http://www.w3.org/2000/svg">
<g clip-path="url(#clip0_64_163)">
<path d="M12.7523 0C13.6203 0 14.4883 0.0385604 15.3471 0.0694087C15.9104 0.0848329 16.4737 0.154242 17 0.200514L16.9631 4.55013H16.5475C15.975 4.55013 15.4025 4.55013 14.83 4.55013C14.4052 4.55013 13.9712 4.55013 13.5464 4.56555C12.1706 4.60411 11.1548 5.03599 11.0809 6.47815C11.0348 7.51157 11.0071 9.80206 11.0071 9.92545C11.0809 9.92545 12.4383 9.92545 13.8142 9.92545C14.4976 9.92545 15.1716 9.92545 15.6334 9.92545H16.7507C16.4737 11.5913 16.2151 13.1954 15.9381 14.8072H11.0071L10.8963 27H4.83867L4.94948 14.7841H0L0.0461706 9.92545H5.02336V9.56298C5.03259 8.58355 5.02336 7.60411 5.06953 6.62468C5.088 6.00771 5.12493 5.37532 5.25421 4.76607C5.58664 3.27764 6.41771 2.02828 7.9044 1.14139C9.20641 0.362468 10.6931 0.0308483 12.2629 0C12.4199 0 12.5861 0 12.7431 0H12.7523Z" fill="white"/>
</g>
<defs>
<clipPath id="clip0_64_163">
<rect width="17" height="27" fill="white"/>
</clipPath>
</defs>
</svg>
