<svg width="27" height="27" viewBox="0 0 27 27" fill="none" xmlns="http://www.w3.org/2000/svg">
<g clip-path="url(#clip0_64_155)">
<path d="M20.7531 4.69775H20.7706C21.6592 4.69775 22.3824 5.42112 22.3737 6.32752C22.3737 7.21648 21.6331 7.93985 20.7357 7.93985C19.8383 7.93113 19.1239 7.19905 19.1326 6.31008C19.1326 5.41241 19.8645 4.69775 20.7531 4.69775Z" fill="white"/>
<path d="M26.8341 6.7805C27.0345 8.90704 27.1652 18.9471 26.5379 21.3002C25.7015 24.3767 23.6889 26.1982 20.5786 26.7037C19.4111 26.8954 16.2746 27.0087 13.1294 27.0087C9.98419 27.0087 6.70829 26.8867 5.62794 26.6078C2.56986 25.8147 0.740238 23.8189 0.252339 20.7163C-0.104873 18.4329 -0.139723 7.85249 0.513713 5.55165C1.37625 2.5623 3.37141 0.801808 6.39464 0.305036C7.7625 0.0784377 10.446 0 13.1555 0C15.6734 0 18.2175 0.0697224 19.7509 0.14816C21.6066 0.244028 23.2969 0.845384 24.6822 2.16139C25.9977 3.4164 26.6686 4.99387 26.8341 6.77179V6.7805ZM24.2378 20.2631C24.6212 17.8925 24.6212 9.22079 24.4034 6.99839C24.1594 4.62782 22.7131 3.05907 20.3608 2.69303C19.202 2.51872 16.3966 2.44028 13.6086 2.44028C10.8206 2.44028 8.24169 2.51001 7.0655 2.64074C4.71313 2.91091 3.12746 4.36637 2.75282 6.71078C2.36947 9.19464 2.36947 18.4764 2.65699 20.3415C2.95321 22.285 4.05098 23.6185 5.98516 24.1588C7.03065 24.4551 10.1672 24.5597 13.2427 24.5597C16.0742 24.5597 18.8535 24.4726 19.899 24.3593C22.2775 24.0978 23.8458 22.6336 24.2204 20.2718" fill="white"/>
<path d="M13.5566 6.5801C17.3727 6.5801 20.4482 9.68274 20.4221 13.5088C20.3959 17.3261 17.2681 20.4287 13.4434 20.4287C9.61858 20.4287 6.55179 17.3261 6.57792 13.5C6.60406 9.67403 9.73185 6.57138 13.5566 6.5801ZM13.4608 17.9797C15.9177 17.9797 17.9303 16.0013 17.9739 13.5436C18.0174 11.0598 16.0484 9.04653 13.5741 9.02038C13.5566 9.02038 13.5479 9.02038 13.5305 9.02038C11.0736 9.02038 9.06098 10.9988 9.01742 13.4565C8.97386 15.9316 10.9429 17.9536 13.4172 17.9797C13.4347 17.9797 13.4434 17.9797 13.4608 17.9797Z" fill="white"/>
</g>
<defs>
<clipPath id="clip0_64_155">
<rect width="27" height="27" fill="white"/>
</clipPath>
</defs>
</svg>
