<svg width="29" height="24" viewBox="0 0 29 24" fill="none" xmlns="http://www.w3.org/2000/svg">
<g clip-path="url(#clip0_64_160)">
<path d="M29 2.87033C28.7858 3.19834 28.5717 3.50814 28.3308 3.79971C27.7062 4.59242 26.9745 5.29401 26.1625 5.89538L26.0643 6.08673C26.0911 6.97966 26.0554 7.88171 25.9305 8.77465C25.6985 10.6608 25.1631 12.4557 24.3689 14.1687C23.5302 15.9364 22.4683 17.54 21.1209 18.9432C18.8366 21.3396 16.1062 22.8794 12.9295 23.5901C11.8409 23.827 10.7434 23.9546 9.61908 23.9911C9.44062 23.9911 9.26215 23.9911 9.08369 23.9911C5.87139 23.9911 2.89108 23.1163 0.142769 21.376L0 21.2849C0.472923 21.3396 0.936923 21.3578 1.392 21.3578C2.96246 21.3578 4.47046 21.0571 5.94277 20.4557C6.96 20.0275 7.89692 19.4808 8.77138 18.7701C5.69292 18.6699 3.78338 16.4011 3.28369 14.5605C3.64954 14.6334 4.01538 14.6699 4.39015 14.6699C4.872 14.6699 5.35385 14.6061 5.82677 14.4967L5.916 14.4512C4.23846 14.0503 2.96246 13.1482 2.088 11.6721C1.49908 10.6972 1.22246 9.62203 1.23138 8.45575C2.07015 8.91133 2.93569 9.15734 3.87262 9.18467C2.62338 8.2644 1.79354 7.05256 1.45446 5.51269C1.12431 3.97283 1.35631 2.50586 2.13262 1.12089C5.30923 4.98422 9.36031 7.10723 14.3215 7.46258C14.2858 7.21657 14.2591 7.007 14.2234 6.79743C14.0717 5.36691 14.3662 4.04572 15.1335 2.84299C16.0883 1.32135 17.4357 0.382854 19.1757 0.100394C19.5415 0.0366122 19.9074 0.00927734 20.2554 0.00927734C21.808 0.00927734 23.1822 0.619756 24.36 1.79515C24.4314 1.85894 24.4938 1.89538 24.5742 1.89538C24.6009 1.89538 24.6366 1.89538 24.6634 1.88627C25.8858 1.62203 27.0458 1.17556 28.1255 0.537751L28.2058 0.492193C27.7775 1.89538 26.912 2.98878 25.6806 3.7906C26.8406 3.66304 27.9292 3.34413 29 2.87944V2.87033Z" fill="white"/>
</g>
<defs>
<clipPath id="clip0_64_160">
<rect width="29" height="24" fill="white"/>
</clipPath>
</defs>
</svg>
